<?xml version="1.0" encoding="UTF-8" standalone="no"?>
<svg
   xmlns:dc="http://purl.org/dc/elements/1.1/"
   xmlns:cc="http://creativecommons.org/ns#"
   xmlns:rdf="http://www.w3.org/1999/02/22-rdf-syntax-ns#"
   xmlns:svg="http://www.w3.org/2000/svg"
   xmlns="http://www.w3.org/2000/svg"
   xmlns:sodipodi="http://sodipodi.sourceforge.net/DTD/sodipodi-0.dtd"
   xmlns:inkscape="http://www.inkscape.org/namespaces/inkscape"
   inkscape:version="1.0 (4035a4fb49, 2020-05-01)"
   sodipodi:docname="LOGO_LEO.svg"
   viewBox="0 0 480 480"
   height="480"
   width="480"
   xml:space="preserve"
   id="svg2"
   version="1.1"><metadata
     id="metadata8"><rdf:RDF><cc:Work
         rdf:about=""><dc:format>image/svg+xml</dc:format><dc:type
           rdf:resource="http://purl.org/dc/dcmitype/StillImage" /><dc:title></dc:title></cc:Work></rdf:RDF></metadata><defs
     id="defs6" /><sodipodi:namedview
     inkscape:current-layer="g10"
     inkscape:window-maximized="1"
     inkscape:window-y="-4"
     inkscape:window-x="-4"
     inkscape:cy="238.54427"
     inkscape:cx="314.22138"
     inkscape:zoom="1.7029488"
     showgrid="false"
     inkscape:document-rotation="0"
     id="namedview4"
     inkscape:window-height="749"
     inkscape:window-width="1366"
     inkscape:pageshadow="2"
     inkscape:pageopacity="0"
     guidetolerance="10"
     gridtolerance="10"
     objecttolerance="10"
     borderopacity="1"
     bordercolor="#666666"
     pagecolor="#ffffff" /><g
     transform="matrix(1.3333333,0,0,-1.3333333,0,480)"
     inkscape:label="ink_ext_XXXXXX"
     inkscape:groupmode="layer"
     id="g10"><path
       d="m 304.694,175.93 c -1.41,4.257 -2.937,7.791 -4.804,11.124 -4.714,8.406 -9.775,16.554 -15.039,24.219 -0.445,0.647 -0.967,1.32 -1.494,1.994 -0.621,0.794 -1.262,1.615 -1.59,2.211 -0.496,0.899 -0.702,3.063 -0.77,3.772 -0.06,0.659 -0.065,1.426 -0.071,2.238 -0.009,1.379 -0.02,2.941 -0.322,4.496 -0.548,2.814 -2.226,4.759 -3.575,6.321 -0.349,0.404 -0.699,0.805 -1.013,1.22 -2.288,3.02 -4.505,6.329 -6.42,9.263 -0.025,0.97 0.081,2.758 0.131,3.606 0.057,0.956 0.097,1.765 0.09,2.202 -0.088,4.938 -2.258,9.165 -4.259,11.474 l -0.264,0.307 c -1.932,2.259 -7.762,9.078 -14.407,11.762 -7.741,4.204 -20.594,10.057 -43.125,12.991 -8.325,1.801 -16.737,2.714 -25.003,2.714 -0.67,0 -1.343,-0.006 -1.895,-0.018 -0.496,0.007 -0.989,0.01 -1.481,0.01 -5.291,0 -10.717,-0.383 -16.125,-1.14 -25.904,-2.679 -39.395,-9.379 -47.344,-13.329 -4.547,-2.083 -14.388,-9.152 -16.4445,-12.719 l -0.4929,-0.844 c -1.4473,-2.451 -3.2469,-5.502 -3.325,-9.914 -0.0161,-0.807 0.0808,-1.529 0.1648,-2.166 0.0137,-0.091 0.0266,-0.187 0.0383,-0.284 -0.3156,-0.241 -0.6106,-0.478 -0.8496,-0.698 -4.8254,-4.454 -10.3059,-12.423 -9.6496,-25.362 -2.4129,-3.021 -5.1348,-6.07 -7.9969,-9.277 -6.2727,-7.027 -12.7578,-14.292 -17.1098,-22.533 l -0.407,-0.771 c -1.9387,-3.662 -4.5945,-8.675 -5.6113,-12.977 l -0.1075,-0.453 v -3.303 l 0.0254,-0.227 c 0.8067,-6.996 5.9817,-10.471 10.1407,-13.263 1.3132,-0.881 2.5515,-1.713 3.623,-2.605 1.1719,-0.976 2.5039,-1.923 3.916,-2.925 2.7774,-1.971 5.9239,-4.206 7.1199,-6.3 0.1782,-0.31 0.3684,-0.712 0.5723,-1.129 0.843,-1.725 1.6379,-3.354 3.0832,-4.312 1.6699,-1.096 3.6153,-1.244 5.2969,-1.244 0.3113,0 1.8918,0.019 1.9734,0.017 0.3899,-0.384 0.9485,-0.911 1.727,-1.405 1.6504,-1.054 3.523,-1.718 4.0418,-1.891 0.0351,-0.012 3.2922,-1.062 6.1044,-1.288 -0.823,-2.036 -1.683,-4.847 -1.9157,-8.086 -2.345,-1.159 -3.7754,-3.805 -4.2637,-7.905 -0.4531,-3.755 -1.1145,-13.107 2.5176,-18.822 1.8132,-2.8509 4.8628,-5.454 8.5918,-7.333 0.689,-0.346 1.488,-0.5601 3.229,-1.0089 2.35,-0.6071 6.282,-1.6219 8.323,-2.8993 C 133.177,80.0949 150.515,74.5 169.813,72.784 v -0.207 l 3.79,-0.1891 c 2.358,-0.118 4.761,-0.1777 7.146,-0.1777 26.604,0 48.163,7.1199 58.541,13.2168 2.046,1.2011 4.271,2.3902 6.422,3.539 4.433,2.3692 6.806,3.6641 8.095,4.9531 1.583,1.5821 3.056,3.5508 4.356,5.2879 0.482,0.645 0.944,1.263 1.38,1.817 0.353,0.446 0.957,0.989 1.599,1.563 2.249,2.016 5.649,5.061 5.122,10.479 -0.214,2.208 -1.084,4.072 -1.844,5.6 1.559,4.738 0.293,10.821 -0.748,13.712 -0.047,0.13 -0.093,0.28 -0.144,0.438 -0.175,0.553 -0.463,1.455 -0.963,2.357 3.71,0.699 6.669,1.72 9.118,3.148 0.469,-0.047 0.932,-0.071 1.384,-0.071 h 10e-4 c 5.552,0 8.629,3.355 10.876,5.803 0.549,0.598 1.068,1.164 1.561,1.616 2.091,1.918 4.349,3.787 6.343,5.436 0.66,0.548 1.301,1.078 1.906,1.584 0.592,0.495 1.197,0.991 1.805,1.49 2.349,1.927 4.777,3.919 6.819,6.095 3.685,3.927 4.464,9.195 2.316,15.656"
       style="fill:#ffffff;fill-opacity:1;fill-rule:nonzero;stroke:none;stroke-width:0.1"
       id="path14" /><path
       d="m 111.557,174.265 c -4.748,-2.868 -10.184,-4.886 -15.1898,-7.821 -3.5774,-2.096 -6.9578,-4.291 -10.0879,-7.138 -0.1133,-0.108 -2.9199,-2.838 -3.5098,-0.794 -0.3117,1.071 1.4153,2.463 2.2649,3.172 4.8844,4.071 10.7527,7.542 17.1136,10.088 2.91,1.163 6.078,2.51 9.409,2.493"
       style="fill:none;fill-opacity:1;fill-rule:evenodd;stroke:none;stroke-width:0.1"
       id="path18" /><path
       d="m 122.08,95.841 0.148,-0.0051 -0.019,0.0082 z"
       style="fill:#ffffff;fill-opacity:1;fill-rule:nonzero;stroke:none;stroke-width:0.1"
       id="path26" /><path
       d="m 133.755,98.843 0.147,-0.0059 -0.018,0.009 z"
       style="fill:#ffffff;fill-opacity:1;fill-rule:nonzero;stroke:none;stroke-width:0.1"
       id="path28" /><path
       d="m 140.428,101.846 0.145,-0.006 -0.018,0.009 z"
       style="fill:#ffffff;fill-opacity:1;fill-rule:nonzero;stroke:none;stroke-width:0.1"
       id="path30" /><path
       d="m 250.735,250.498 c 0.332,-1.038 0.766,-2.081 1.359,-2.948 -0.593,0.867 -0.937,1.942 -1.359,2.948"
       style="fill:#231f20;fill-opacity:1;fill-rule:nonzero;stroke:none;stroke-width:0.1"
       id="path42" /><path
       d="m 247.035,160.716 c -0.135,0.029 -0.271,0.058 -0.408,0.088 0.137,-0.03 0.275,-0.059 0.408,-0.088"
       style="fill:#231f20;fill-opacity:1;fill-rule:nonzero;stroke:none;stroke-width:0.1"
       id="path44" /><path
       d="m 248.606,160.325 c -0.146,0.041 -0.293,0.082 -0.447,0.122 0.154,-0.04 0.301,-0.081 0.447,-0.122"
       style="fill:#231f20;fill-opacity:1;fill-rule:nonzero;stroke:none;stroke-width:0.1"
       id="path46" /><path
       d="m 247.834,160.528 c -0.137,0.034 -0.277,0.069 -0.42,0.102 0.143,-0.033 0.283,-0.068 0.42,-0.102"
       style="fill:#231f20;fill-opacity:1;fill-rule:nonzero;stroke:none;stroke-width:0.1"
       id="path48" /><path
       d="m 249.486,160.056 c -0.199,0.068 -0.413,0.134 -0.633,0.199 0.22,-0.065 0.434,-0.131 0.633,-0.199"
       style="fill:#231f20;fill-opacity:1;fill-rule:nonzero;stroke:none;stroke-width:0.1"
       id="path50" /><path
       d="m 246.198,160.891 c -0.125,0.024 -0.254,0.048 -0.381,0.072 0.127,-0.024 0.256,-0.048 0.381,-0.072"
       style="fill:#231f20;fill-opacity:1;fill-rule:nonzero;stroke:none;stroke-width:0.1"
       id="path52" /><path
       d="m 242.829,161.431 -0.126,0.016 0.126,-0.016"
       style="fill:#231f20;fill-opacity:1;fill-rule:nonzero;stroke:none;stroke-width:0.1"
       id="path54" /><path
       d="m 240.966,161.639 -0.084,0.008 0.084,-0.008"
       style="fill:#231f20;fill-opacity:1;fill-rule:nonzero;stroke:none;stroke-width:0.1"
       id="path56" /><path
       d="m 245.318,161.056 -0.191,0.032 0.191,-0.032"
       style="fill:#231f20;fill-opacity:1;fill-rule:nonzero;stroke:none;stroke-width:0.1"
       id="path58" /><path
       d="m 241.926,161.539 -0.149,0.016 0.149,-0.016"
       style="fill:#231f20;fill-opacity:1;fill-rule:nonzero;stroke:none;stroke-width:0.1"
       id="path60" /><path
       d="m 229.541,163.909 0.043,-0.031 -0.043,0.031"
       style="fill:#231f20;fill-opacity:1;fill-rule:nonzero;stroke:none;stroke-width:0.1"
       id="path62" /><path
       d="m 229.584,163.878 v 0 l 0.002,-10e-4 z"
       style="fill:#ffffff;fill-opacity:1;fill-rule:nonzero;stroke:none;stroke-width:0.1"
       id="path64" /><path
       d="m 239.154,95.8359 0.145,0.0051 -0.127,0.0031 z"
       style="fill:#ffffff;fill-opacity:1;fill-rule:nonzero;stroke:none;stroke-width:0.1"
       id="path66" /><path
       d="m 227.497,98.8461 -0.018,-0.009 0.145,0.0059 z"
       style="fill:#ffffff;fill-opacity:1;fill-rule:nonzero;stroke:none;stroke-width:0.1"
       id="path68" /><path
       d="m 220.824,101.849 -0.017,-0.009 0.146,0.006 z"
       style="fill:#ffffff;fill-opacity:1;fill-rule:nonzero;stroke:none;stroke-width:0.1"
       id="path70" /><path
       d="m 115.068,160.123 c 0.136,0.029 0.273,0.058 0.411,0.087 -0.138,-0.029 -0.275,-0.058 -0.411,-0.087"
       style="fill:#231f20;fill-opacity:1;fill-rule:nonzero;stroke:none;stroke-width:0.1"
       id="path72" /><path
       d="m 113.499,159.729 c 0.145,0.042 0.293,0.083 0.448,0.123 -0.155,-0.04 -0.303,-0.081 -0.448,-0.123"
       style="fill:#231f20;fill-opacity:1;fill-rule:nonzero;stroke:none;stroke-width:0.1"
       id="path74" /><path
       d="m 114.27,159.934 c 0.138,0.034 0.277,0.068 0.421,0.102 -0.144,-0.034 -0.283,-0.068 -0.421,-0.102"
       style="fill:#231f20;fill-opacity:1;fill-rule:nonzero;stroke:none;stroke-width:0.1"
       id="path76" /><path
       d="m 112.619,159.46 c 0.2,0.067 0.413,0.134 0.634,0.199 -0.221,-0.065 -0.434,-0.132 -0.634,-0.199"
       style="fill:#231f20;fill-opacity:1;fill-rule:nonzero;stroke:none;stroke-width:0.1"
       id="path78" /><path
       d="m 115.907,160.298 c 0.125,0.025 0.252,0.049 0.381,0.073 -0.129,-0.024 -0.256,-0.048 -0.381,-0.073"
       style="fill:#231f20;fill-opacity:1;fill-rule:nonzero;stroke:none;stroke-width:0.1"
       id="path80" /><path
       d="m 119.275,160.841 0.127,0.015 -0.127,-0.015"
       style="fill:#231f20;fill-opacity:1;fill-rule:nonzero;stroke:none;stroke-width:0.1"
       id="path82" /><path
       d="m 121.138,161.05 0.084,0.008 -0.084,-0.008"
       style="fill:#231f20;fill-opacity:1;fill-rule:nonzero;stroke:none;stroke-width:0.1"
       id="path84" /><path
       d="m 116.787,160.464 0.192,0.033 -0.192,-0.033"
       style="fill:#231f20;fill-opacity:1;fill-rule:nonzero;stroke:none;stroke-width:0.1"
       id="path86" /><path
       d="m 120.178,160.949 0.148,0.017 -0.148,-0.017"
       style="fill:#231f20;fill-opacity:1;fill-rule:nonzero;stroke:none;stroke-width:0.1"
       id="path88" /><path
       d="m 132.564,163.33 -0.044,-0.03 0.044,0.03"
       style="fill:#231f20;fill-opacity:1;fill-rule:nonzero;stroke:none;stroke-width:0.1"
       id="path90" /><path
       d="m 132.52,163.3 v 0 -0.001 z"
       style="fill:#ffffff;fill-opacity:1;fill-rule:nonzero;stroke:none;stroke-width:0.1"
       id="path92" /><path
       d="m 130.841,161.325 0.049,0.043 -0.049,-0.043"
       style="fill:#ffffff;fill-opacity:1;fill-rule:nonzero;stroke:none;stroke-width:0.1"
       id="path94" /><path
       d="m 227.472,223.516 v 0 l 0.027,0.008 z"
       style="fill:#51ade5;fill-opacity:1;fill-rule:nonzero;stroke:none;stroke-width:0.1"
       id="path98" /><g
       inkscape:label="#LEAO_ALL"
       id="LEAO_ALL"><path
         id="path16"
         style="fill:#ffffff;fill-opacity:1;fill-rule:nonzero;stroke:none;stroke-width:0.1"
         d="m 300.907,174.675 c -1.204,3.633 -2.595,7.035 -4.497,10.428 -4.699,8.379 -9.633,16.319 -14.849,23.913 -1.012,1.476 -2.491,3.089 -3.288,4.534 -0.784,1.42 -1.069,3.444 -1.247,5.326 -0.191,2.041 0.053,4.336 -0.338,6.346 -0.465,2.394 -2.451,4.043 -3.852,5.894 -2.451,3.237 -4.846,6.819 -7.08,10.259 -0.387,1.338 0.094,5.937 0.072,7.149 -0.068,3.834 -1.796,7.214 -3.285,8.934 -1.28,1.478 -7.166,8.671 -13.351,11.062 -7.59,4.143 -20.182,9.841 -42.109,12.676 -7.83,1.705 -16.679,2.812 -26.271,2.641 -6.013,0.08 -11.718,-0.349 -17.072,-1.101 -24.932,-2.57 -37.936,-8.91 -46.166,-12.996 -4.483,-2.054 -13.24,-8.643 -14.647,-11.083 -1.495,-2.594 -3.2192,-5.047 -3.2883,-8.841 -0.0215,-1.213 0.4133,-2.541 0.2273,-3.852 -0.107,-0.77 -1.4695,-1.522 -2.1543,-2.154 -5.6812,-5.244 -9.2019,-13.037 -8.2715,-23.687 -7.8472,-10.165 -19.3523,-20.467 -25.6621,-32.415 -1.9136,-3.624 -4.6988,-8.716 -5.666,-12.805 v -2.607 c 0.8012,-6.959 7.5734,-9.278 12.3547,-13.261 3.5305,-2.943 9.6199,-6.236 11.9465,-10.313 0.6941,-1.216 1.6219,-3.58 2.3789,-4.082 1.5398,-1.01 4.5957,-0.336 6.3484,-0.679 1.0379,-0.204 1.3992,-1.159 2.6074,-1.926 0.954,-0.61 2.2422,-1.163 3.1719,-1.474 0.8899,-0.3 7.0981,-2.057 7.4801,-0.456 0.227,0.952 -0.63,0.933 -1.36,1.477 -2.24,1.669 -3.037,4.865 -4.3037,7.026 2.8967,1.904 7.4477,3.733 11.3287,4.986 1.382,0.447 3.09,1.3 4.195,1.247 1.585,-0.077 3.492,-2.057 4.307,-2.948 -1.817,-4.405 -2.502,-11.559 -1.36,-17.225 -0.307,-0.651 -1.032,-1.059 -1.587,-1.587 -0.599,-0.568 -1.171,-1.177 -1.699,-1.813 -1.108,-1.332 -1.653,-2.993 -2.832,-4.193 -0.856,1.226 -1.339,2.728 -1.929,4.532 -0.353,1.087 -0.766,4.605 -1.814,4.761 -0.938,0.139 -1.476,-1.344 -1.812,-2.154 -1.214,-2.92 -2.037,-6.506 -1.698,-10.2 -3.429,0.618 -3.9969,-2.385 -4.3087,-4.989 -0.7109,-5.899 -0.3945,-12.556 1.9257,-16.204 1.532,-2.411 4.196,-4.4878 7.019,-5.9101 1.091,-0.5488 8.173,-1.773 11.872,-4.089 16.856,-10.5367 35.635,-15.2297 53.458,-16.3387 v -0.1113 c 26.889,-1.3469 51.381,5.3929 63.468,12.4941 5.429,3.1899 12.193,6.3512 13.717,7.8738 1.939,1.9383 3.839,4.7422 5.424,6.7552 2.035,2.581 6.341,4.466 5.882,9.186 -0.21,2.154 -1.413,4.014 -2.268,5.893 1.896,3.115 1.083,9.149 -0.111,12.467 -0.378,1.057 -0.821,3.12 -1.928,3.061 -1.087,-0.06 -1.798,-4.058 -2.153,-5.102 -0.722,-2.125 -1.308,-3.558 -2.15,-5.213 -6.681,4.855 -10.686,12.955 -10.202,24.596 2.469,1.109 6.124,1.812 9.975,1.812 3.696,0 7.69,-0.158 9.632,-2.153 -1.128,-2.672 -2.529,-5.022 -4.648,-6.914 -0.643,-0.577 -2.05,-1.169 -1.703,-2.039 0.408,-0.993 2.573,-0.412 3.745,-0.228 4.216,0.667 7.684,1.764 10.313,3.628 6.606,-1.377 8.913,3.275 12.013,6.119 2.853,2.619 5.891,5.051 8.387,7.142 2.807,2.346 5.903,4.727 8.274,7.254 2.849,3.037 2.978,7.038 1.438,11.671" /><g
         id="g202"><g
           inkscape:label="#LEAO"
           id="LEAO"><path
             id="path32"
             style="fill:#000000;fill-opacity:1;fill-rule:evenodd;stroke:none;stroke-width:0.1"
             d="m 280.656,198.816 c 1.253,-1.587 3.131,-3.132 2.946,-5.779 -0.539,-0.608 -1.615,-0.487 -2.27,-0.342 -2.785,0.616 -5.029,3.219 -6.569,5.101 1.475,-0.358 5.535,-1.432 5.893,1.02" /><path
             id="path34"
             style="fill:#000000;fill-opacity:1;fill-rule:evenodd;stroke:none;stroke-width:0.1"
             d="m 237.587,166.628 c 1.337,0.846 3.045,0.419 4.419,0.228 9.824,-1.378 18.844,-5.117 27.429,-7.482 -0.079,1.122 -1.642,1.636 -2.608,2.269 -4.971,3.267 -10.553,6.269 -16.661,8.612 -2.492,0.958 -5.117,1.404 -7.705,2.382 0.88,1.342 2.903,0.751 4.193,0.565 7.13,-1.035 13.211,-4.217 18.362,-7.367 1.066,-0.652 2.075,-1.346 3.056,-2.041 0.974,-0.685 1.847,-1.593 2.948,-1.926 0.162,1.285 -1.285,1.957 -2.039,2.608 -5.052,4.364 -10.148,9.076 -16.772,12.014 -1.003,0.443 -2.182,0.79 -2.834,1.699 0.055,0.401 0.631,0.43 1.585,0.34 2.879,-0.274 5.953,-2.252 8.275,-3.626 6.064,-3.595 11.177,-8.233 16.206,-13.26 0.793,-0.793 2.762,-2.394 2.832,-3.06 0.143,-1.312 -2.722,-3.449 -4.079,-3.515 -1.315,-0.066 -3.192,0.923 -4.648,1.474 -8.716,3.302 -17.308,6.909 -27.314,8.725 -1.522,0.276 -3.407,0.181 -4.645,1.361" /><path
             id="path36"
             style="fill:#000000;fill-opacity:1;fill-rule:evenodd;stroke:none;stroke-width:0.1"
             d="m 249.034,217.403 c -2.362,-1.135 -5.226,-1.926 -8.387,-1.699 -5.445,0.389 -8.543,4.261 -10.314,8.159 0.87,-0.262 1.446,-1.313 2.268,-1.812 1.516,-0.925 4.051,-1.475 6.573,-1.475 9.886,0 15.531,6.193 25.046,5.554 2.347,-0.156 4.652,-1.134 5.439,-3.172 0.753,-1.941 0.708,-4.193 1.136,-6.122 1.36,-6.111 4.099,-10.027 7.367,-14.392 -2.726,-0.937 -4.048,1.175 -5.778,2.265 -1.864,1.173 -3.833,1.603 -6.121,2.268 -1.031,2.333 -2.239,4.486 -4.082,6.006 -2.353,-1.477 -5.659,-3.496 -9.745,-4.081 -1.3,-0.186 -3.332,-0.295 -3.515,0.795 -0.297,1.733 3.35,2.723 4.307,3.4 4.936,-0.513 6.969,3.731 7.935,7.933 -0.347,0.45 -1.225,0.362 -1.703,0.678 -1.368,-2.784 -2.604,-5.705 -5.324,-7.138 -1.566,1.831 1.149,5.411 -0.569,7.481 -0.962,-0.134 -1.718,-0.475 -2.492,-0.796 -0.08,-1.946 -0.375,-4.537 0.336,-6.006 -0.744,0.313 -1.536,1.559 -2.377,2.154" /><path
             id="path38"
             style="fill:#000000;fill-opacity:1;fill-rule:evenodd;stroke:none;stroke-width:0.1"
             d="m 279.636,190.543 c 1.61,-0.482 5.222,-3.805 7.253,-1.814 0.934,-0.7 2.099,-2.908 1.02,-4.194 -4.329,0.431 -5.849,3.671 -8.273,6.008" /><path
             id="path40"
             style="fill:#000000;fill-opacity:1;fill-rule:evenodd;stroke:none;stroke-width:0.1"
             d="m 284.396,183.062 c 1.792,-0.637 3.628,-2.778 6.459,-2.379 -1.133,-3.608 -5.182,1.304 -6.459,2.379" /><path
             id="path20"
             style="fill:#000000;fill-opacity:1;fill-rule:evenodd;stroke:none;stroke-width:0.1"
             d="m 111.781,170.524 c -0.794,-1.012 -2.082,-1.491 -3.173,-2.04 -6.837,-3.437 -13.9002,-6.873 -19.1517,-12.126 -0.8118,-0.81 -1.9629,-2.074 -3.4016,-1.358 -0.5313,1.358 0.7844,2.36 1.5871,3.059 4.5469,3.967 9.5777,7.149 15.6402,9.86 2.737,1.223 5.354,2.33 8.499,2.605" /><path
             id="path22"
             style="fill:#000000;fill-opacity:1;fill-rule:evenodd;stroke:none;stroke-width:0.1"
             d="m 110.536,165.766 c 0.978,-0.082 0.026,-0.565 -0.567,-0.909 -3.662,-2.115 -7.388,-3.659 -10.8811,-5.78 -2.8965,-1.757 -5.625,-3.749 -8.1582,-6.233 -0.3738,-0.362 -2.2774,-2.158 -2.9473,-0.905 -0.7258,1.352 3.3223,4.092 4.1922,4.757 3.5234,2.7 7.0188,4.863 11.3344,6.8 2.033,0.915 4.449,2.111 6.801,2.27 h 0.226" /><path
             id="path24"
             style="fill:#000000;fill-opacity:1;fill-rule:evenodd;stroke:none;stroke-width:0.1"
             d="m 80.6699,181.49 c -1.6164,-1.259 -7.1386,-2.426 -10.1328,-1.926 -0.1094,0.509 0.2305,1.033 0.4539,1.474 3.832,7.629 11.5844,15.534 16.5918,22.099 v 0.113 c 0.0902,-0.952 -1.4851,-3.515 -2.0398,-4.873 -2.1016,-5.159 -4.2403,-10.826 -4.8731,-16.887" /><path
             id="path96"
             style="fill:#000000;fill-opacity:1;fill-rule:nonzero;stroke:none;stroke-width:0.1"
             d="m 222.194,217.104 c 2.666,-4.206 6.014,-7.737 11.219,-9.407 -6.407,-2.915 -12.397,1.429 -11.219,9.407 z m 76.028,-47.983 c -0.694,-0.097 -1.966,1.488 -2.832,2.04 -0.728,-0.219 -1.163,-1.328 -1.702,-1.359 -3.107,2.281 -7.358,5.263 -12.579,4.647 -1.155,-0.137 -3.031,-1.616 -4.194,-2.38 -1.216,-0.798 -2.371,-1.648 -3.513,-2.381 5.705,-0.539 9.386,-2.864 11.107,-7.82 0.451,-1.3 1.393,-3.794 1.019,-5.212 -0.177,-0.674 -1.745,-1.599 -2.494,-2.266 -1.021,-0.917 -1.729,-1.668 -2.378,-2.269 -1.875,-1.728 -3.106,-3.583 -4.648,-4.76 -3.112,-2.377 -7.473,0.112 -10.201,1.814 -4.294,2.678 -7.05,6.173 -12.468,7.481 -8.849,2.136 -19.895,1.482 -27.03,-2.343 -3.043,-3.548 -5.12,-8.781 -6.246,-14.712 -0.337,-1.788 -1.065,-4.996 -0.856,-6.829 0.047,-0.415 0.222,-0.845 0.456,-1.273 1.374,-2.302 4.358,-4.063 6.819,-5.56 5.289,-3.215 11.189,-5.939 17.678,-7.932 3.946,-1.212 8.61,-2.271 13.26,-1.585 0.465,-1.304 2.287,-3.613 1.132,-5.44 -0.4,-0.641 -3.044,-1.629 -3.736,-2.155 -2.127,-1.602 -3.67,-4.037 -5.216,-6.572 -1.07,-1.756 -2.84,-4.6261 -5.213,-2.38 -0.654,0.62 -1.042,1.894 -1.134,2.719 -0.508,4.688 1.938,9.65 3.06,13.146 -1.563,-0.596 -3.758,-1.23 -6.117,-1.812 -1.627,-0.401 -5.512,-1.466 -6.462,0 -1.393,2.144 1.556,4.429 2.154,5.78 -2.283,-0.433 -5.75,-1.397 -8.502,-1.36 -0.784,0.011 -2.033,0.16 -2.379,0.677 -1.2,1.803 1.177,4.094 1.587,5.443 -1.82,-0.62 -4.163,-1.84 -6.685,-1.814 -4.562,0.046 -1.988,4.292 -0.131,6.239 -0.735,-0.131 -1.491,-0.233 -2.244,-0.327 -0.919,-0.277 -1.886,-0.497 -2.842,-0.471 -1.004,0.025 -1.986,0.407 -2.152,1.132 -0.24,1.059 0.886,2.212 1.472,3.174 0.339,0.553 0.678,1.137 1.014,1.732 1.607,8.169 -2.067,19.079 9.023,23.117 2.404,0.937 5.815,1.354 7.642,1.632 5.301,1.372 11.435,1.96 17.795,1.174 -0.199,0.068 -0.413,0.134 -0.633,0.199 l -0.247,0.07 c -0.146,0.041 -0.293,0.082 -0.447,0.122 -0.105,0.028 -0.215,0.055 -0.325,0.081 -0.137,0.034 -0.277,0.069 -0.42,0.102 -0.125,0.029 -0.25,0.057 -0.379,0.086 -0.133,0.029 -0.271,0.058 -0.408,0.088 -0.144,0.029 -0.284,0.058 -0.429,0.087 -0.125,0.024 -0.254,0.048 -0.381,0.072 -0.166,0.031 -0.33,0.062 -0.499,0.093 l -0.191,0.032 c -0.736,0.126 -1.507,0.242 -2.298,0.343 l -0.126,0.016 c -0.258,0.032 -0.517,0.063 -0.777,0.092 l -0.149,0.016 c -0.269,0.03 -0.54,0.058 -0.811,0.084 l -0.084,0.008 c -1.503,0.143 -3.035,0.231 -4.503,0.25 -4.445,-0.064 -9.171,-1.001 -13.394,-2.637 1.959,2.184 4.336,3.729 6.599,4.618 l -0.043,0.031 c -2.57,0.116 -6.23,-1.104 -12.39,-4.884 0.145,0.487 -0.273,2.642 6.648,5.549 1.768,1.098 5.808,1.611 8.008,2.167 l 0.002,0.008 c -4.86,0.869 -10.719,-0.309 -13.869,-2.201 1.337,3.382 4.678,5.628 8.423,6.792 -2.537,0.704 -6.01,1.132 -8.805,0.694 -0.297,0.189 0.494,0.659 0.829,0.873 2.414,1.553 6.219,3.073 10.121,3.159 -0.337,0.178 -0.673,0.356 -1.009,0.536 -3.493,2.018 -5.486,4.387 -5.494,5.604 2.085,-1.585 5.922,-4.504 15.81,-6.624 -0.438,4.293 3.272,5.415 7.023,5.893 -5.584,1.252 -11.538,2.137 -17.224,3.286 -1.344,0.29 -5.597,1.384 -5.57,2.128 10.965,-1.319 29.393,-0.991 35.829,4.221 -9.015,-2.15 -21.189,-3.233 -25.693,-1.566 6.073,1.841 18.772,2.938 24.676,9.272 -7.998,-2.683 -11.751,-2.517 -18.505,-3.017 5.003,1.668 12.25,5.605 15.216,9.59 -5.656,-2.05 -11.374,-4.04 -18.7,-4.421 3.654,1.753 7.488,3.319 10.201,6.009 -3.089,-0.311 -6.244,-0.556 -9.407,-0.794 0.724,1.319 1.603,2.478 2.379,3.739 -6.825,2.846 -13.679,5.808 -16.681,16.441 2.24,-2.3 4.662,-3.546 6.113,-2.847 l 0.027,0.008 c -1.351,6.398 -1.087,15.969 4.536,17.793 -2.857,2.684 -7.298,3.185 -10.613,3.185 3.378,2.126 11.39,0.217 14.577,-0.918 -1.399,2.528 -5.158,5.784 -7.947,6.922 4.566,0.258 10.625,-2.057 13.275,-4.089 -1.025,1.749 -2.134,3.84 -3.512,5.44 -0.417,0.483 -3.133,4.028 -4.759,5.78 3.319,-1.438 9.757,-4.754 12.237,-10.087 0.683,0.225 1.682,0.134 2.381,0.34 -2.86,10.998 -11.857,16.446 -13.242,19.254 2.326,-1.955 12.884,-6.005 16.303,-16.646 0.422,-1.006 0.766,-2.081 1.359,-2.948 1.198,-1.745 3.725,-2.091 6.575,-2.039 0.542,-1.258 1.129,-2.587 1.795,-3.885 0.074,-0.147 0.153,-0.293 0.23,-0.439 0.123,-0.231 0.248,-0.464 0.378,-0.693 l 0.087,-0.152 c 0.558,-0.971 1.172,-1.903 1.864,-2.748 l 0.004,-0.012 c 0.752,-0.919 1.59,-1.738 2.555,-2.385 1.503,-4.314 3.386,-6.821 6.741,-9.286 0.135,-4.597 0.462,-11.094 2.324,-14.288 0.988,-1.69 2.387,-3.241 3.515,-4.873 5.621,-8.133 10.777,-16.616 15.754,-25.615 1.95,-3.528 4.476,-7.4 4.306,-12.014 z m -37.515,-28.448 c 1.536,1.904 2.892,3.988 3.966,6.349 1.726,-1.033 3.386,-2.131 5.671,-2.606 -2.475,-1.986 -5.907,-3.009 -9.637,-3.743 z m -16.094,-17.566 c -2.92,0.803 -5.222,2.277 -7.254,4.306 -1.985,1.987 -4.661,5.167 -4.192,9.407 0.09,0.819 0.735,1.975 0.567,3.062 -0.227,1.455 -2.193,2.421 -3.288,3.514 -1.182,1.182 -3.181,3.734 -1.583,5.779 2.242,2.881 8.459,0.144 9.632,-2.041 1.661,-3.093 0.665,-8.828 1.245,-13.94 0.556,-4.876 2.658,-7.827 4.873,-10.087 z m 13.6,7.253 c 1.376,-2.755 1.558,-8.15 0.227,-11.106 -1.791,-0.479 -4.08,-0.911 -6.004,-0.34 2.638,3.103 4.54,6.943 5.777,11.446 z M 239.154,95.8359 c -7.465,-3.5379 -16.399,-9.0519 -25.125,-11.7058 -0.504,-0.1531 -1.099,-0.391 -1.692,-0.3 -0.664,2.2039 0.532,6.2308 1.943,7.3898 7.007,0.341 13.512,1.7922 19.433,3.227 1.501,0.3633 4.253,1.389 5.441,1.389 l 0.018,0.0082 0.127,-0.0031 z M 200.662,86.832 c -0.435,1.4442 -0.07,3.666 0.63,5.3551 -1.869,-0.782 -3.743,-1.4851 -5.61,-2.0519 -0.502,-0.1532 -1.098,-0.3911 -1.693,-0.3012 -0.664,2.2051 0.532,6.2308 1.946,7.3898 7.004,0.341 13.511,1.7934 19.429,3.2272 1.502,0.364 4.479,1.456 5.667,1.455 l -0.224,-0.066 c -4.393,-2.0818 -9.297,-4.8451 -14.365,-7.3111 5.555,0.582 10.772,1.7512 15.596,2.9199 1.501,0.3641 4.253,1.3891 5.441,1.3883 l 0.018,0.009 0.127,-0.0031 -0.145,-0.0059 C 220.015,95.3 211.08,89.7859 202.354,87.1332 c -0.503,-0.1543 -1.099,-0.391 -1.692,-0.3012 z m -33.272,3.002 c -0.593,-0.0899 -1.189,0.148 -1.694,0.3012 -1.865,0.5668 -3.74,1.2699 -5.607,2.0519 0.699,-1.6891 1.064,-3.9109 0.629,-5.3551 -0.594,-0.0898 -1.19,0.1469 -1.693,0.3012 -8.726,2.6527 -17.66,8.1668 -25.123,11.7039 l -0.147,0.0059 0.129,0.0031 0.018,-0.009 c 1.189,8e-4 3.939,-1.0242 5.441,-1.3883 4.822,-1.1687 10.041,-2.3386 15.595,-2.9199 -5.069,2.466 -9.973,5.2293 -14.365,7.3111 l -0.145,0.006 0.127,0.003 0.018,-0.009 c 1.187,0.002 3.941,-1.025 5.441,-1.389 5.921,-1.4338 12.425,-2.8862 19.432,-3.2272 1.411,-1.159 2.608,-5.1847 1.944,-7.3898 z m -18.347,-6.0039 c -0.594,-0.091 -1.189,0.1469 -1.692,0.3 -8.727,2.6539 -17.661,8.1679 -25.123,11.7058 l -0.148,0.0051 0.129,0.0031 0.019,-0.0082 c 1.188,0 3.938,-1.0257 5.44,-1.389 5.919,-1.4348 12.426,-2.886 19.431,-3.227 1.413,-1.159 2.609,-5.1859 1.944,-7.3898 z M 110.366,218.134 c 0.237,1.869 1.251,3.694 3.285,2.608 0.548,-3.76 0.433,-8.885 -3.739,-8.387 -3.674,0.436 -5.379,4.691 -6.347,8.046 0.363,0.393 1.035,0.477 1.698,0.566 1.085,-2.958 2.277,-5.808 4.762,-7.365 0.829,1.037 0.144,2.989 0.341,4.532 z m 8.428,-104.32 c -0.287,-0.779 -0.402,-1.779 -0.227,-2.72 -2.238,0.409 -4.233,1.055 -5.552,2.381 0.097,-2.585 0.435,-4.928 0.906,-7.142 -0.352,-0.102 -0.57,0.434 -0.795,0.682 -1.988,2.198 -4.386,4.831 -6.009,7.479 0.411,-4.692 1.198,-9.006 2.836,-12.467 -0.07,-0.352 -0.379,0.269 -0.453,0.34 -3.346,3.19 -4.986,8.895 -4.875,15.527 1.852,-1.122 5.191,-1.138 7.48,-0.34 l 2.041,0.907 c 0.528,0.09 1,-0.116 1.474,-0.113 2.805,0.015 5.156,1.447 6.237,3.513 6.562,-1 10.975,1.879 13.37,5.781 2.16,0.427 3.786,1.352 5.328,2.718 1.21,1.071 2.961,2.969 3.174,4.762 0.221,1.856 -0.782,5.073 -0.907,6.913 -0.542,7.98 -3.807,9.725 -7.215,13.317 -17.512,4.503 -31.273,-0.168 -41.6324,-6.63 -0.5957,-0.372 -1.3918,-0.965 -1.7004,-1.021 -1.5359,-0.268 -3.4246,0.81 -4.8726,0.567 -2.2578,4.697 -5.395,8.508 -8.8391,12.015 0.6633,0.127 1.0813,0.502 1.8105,0.567 1.6336,5.013 5.2051,8.09 11.2188,8.725 -0.6094,4.079 0.0937,8.418 1.4734,11.221 -1.4988,-0.842 -3.0386,-2.627 -4.5339,-3.854 -9.1551,-0.628 -19.2801,-3.507 -24.6395,-7.934 -2.4926,2.595 -1.8801,8.589 0.6805,10.655 6.0976,13.797 18.4355,25.846 27.5886,37.173 0.5879,0.73 1.6164,1.938 1.6965,2.38 0.1446,0.754 -0.2597,1.925 -0.3359,2.836 -0.8914,10.338 3.9851,17.329 10.7655,21.304 -0.156,2.454 -0.285,4.928 -0.566,7.254 1.312,2.36 2.171,3.617 2.885,4.365 4.097,6.085 13.189,12.865 20.036,14.379 -5.754,-4.253 -11.8,-9.966 -12.402,-13.165 4.087,2.698 8.958,6.439 13.362,5.325 -3.548,-1.33 -8.058,-5.563 -11.198,-10.207 0.331,-0.849 0.595,-1.764 0.803,-2.735 2.897,3.112 14.314,10.941 14.126,10.191 -2.639,-2.314 -8.827,-7.595 -9.934,-11.44 0.509,-0.586 1.501,-0.69 2.155,-1.133 2.728,1.881 8.029,4.567 11.282,5.004 -5.191,-3.502 -4.992,-4.646 -6.863,-6.93 0.387,-0.671 0.917,-1.2 1.589,-1.586 4.474,2.46 8.209,-0.232 8.274,-4.988 0.06,-4.714 -4.251,-7.112 -9.071,-7.253 0.181,-1.687 0.874,-2.863 1.649,-3.955 l 0.118,0.001 c 0.521,-0.761 1.364,-2.038 1.706,-2.567 -2.054,-1.054 -4.031,-2.036 -6.912,-2.041 -4.955,-0.01 -8.25,2.76 -12.581,4.533 -4.166,1.705 -9.188,1.882 -14.1669,0.113 -1.3347,-1.709 -2.166,-5.481 -1.134,-8.161 -0.5886,-1.058 -1.6394,-1.43 -2.3789,-2.38 -1.7293,-2.213 -1.9605,-5.659 -3.8543,-7.819 -0.6386,-0.731 -1.341,-1.135 -2.041,-1.926 7.666,0.155 12.3361,3.307 16.0931,7.367 5.009,-4.377 11.737,0.77 14.057,4.306 4.189,-3.656 13.067,-2.511 16.999,0.679 -0.346,-0.366 -0.719,-0.721 -1.118,-1.062 1.19,0.821 2.251,1.681 3.105,2.681 -3.517,-6.061 -8.882,-8.395 -14.241,-10.64 0.777,-1.268 1.657,-2.433 2.379,-3.758 -3.162,0.239 -6.319,0.486 -9.407,0.798 2.713,-2.704 6.548,-4.276 10.201,-6.036 -7.328,0.381 -13.043,2.382 -18.702,4.441 2.97,-4.003 10.213,-7.96 15.217,-9.636 -6.755,0.502 -10.508,0.334 -18.504,3.031 5.904,-6.365 18.604,-7.467 24.677,-9.317 -4.504,-1.675 -16.681,-0.586 -25.696,1.575 6.437,-5.237 24.865,-5.568 35.833,-4.243 0.025,-0.747 -4.227,-1.845 -5.572,-2.137 -5.685,-1.156 -11.639,-2.044 -17.225,-3.303 3.753,-0.481 7.463,-1.606 7.024,-5.921 9.889,2.131 13.724,5.063 15.81,6.656 -0.008,-1.224 -2.002,-3.603 -5.496,-5.631 -0.333,-0.181 -0.671,-0.36 -1.007,-0.539 3.903,-0.086 7.706,-1.612 10.122,-3.174 0.335,-0.214 1.126,-0.688 0.827,-0.876 -2.793,0.439 -6.267,0.01 -8.804,-0.699 3.745,-1.169 7.086,-3.426 8.423,-6.824 -3.151,1.901 -9.011,3.085 -13.87,2.211 l 0.004,-0.008 c 2.199,-0.558 6.237,-1.074 8.006,-2.176 6.924,-2.922 6.503,-5.087 6.647,-5.577 -6.158,3.799 -9.817,5.024 -12.388,4.907 l -0.044,-0.03 c 2.265,-0.893 4.641,-2.446 6.598,-4.64 -4.22,1.643 -8.948,2.585 -13.392,2.65 -1.467,-0.02 -2.999,-0.108 -4.504,-0.252 l -0.084,-0.008 c -0.272,-0.026 -0.541,-0.054 -0.812,-0.084 l -0.148,-0.017 c -0.26,-0.028 -0.52,-0.059 -0.776,-0.093 l -0.127,-0.015 c -0.792,-0.102 -1.562,-0.218 -2.296,-0.344 l -0.192,-0.033 c -0.17,-0.03 -0.335,-0.062 -0.499,-0.093 -0.129,-0.024 -0.256,-0.048 -0.381,-0.073 -0.144,-0.029 -0.287,-0.058 -0.428,-0.088 -0.138,-0.029 -0.275,-0.058 -0.411,-0.087 -0.127,-0.029 -0.254,-0.058 -0.377,-0.087 -0.144,-0.034 -0.283,-0.068 -0.421,-0.102 -0.11,-0.026 -0.219,-0.054 -0.323,-0.082 -0.155,-0.04 -0.303,-0.081 -0.448,-0.123 l -0.246,-0.07 c -0.221,-0.065 -0.434,-0.132 -0.634,-0.199 6.36,0.789 12.492,0.198 17.793,-1.18 1.828,-0.28 5.238,-0.698 7.645,-1.64 4.348,-1.592 6.417,-4.25 7.433,-7.382 0.413,-0.276 0.816,-0.56 1.202,-0.858 0.629,-5.52 0.523,-11.654 2.815,-15.66 -1.362,-0.297 -0.444,-0.875 -1.963,-1.019 1.421,-0.886 0.942,-1.664 2.416,-2.494 -3.145,-1.309 -6.608,-2.303 -10.313,-3.059 0.427,-1.086 1.981,-2.025 3.062,-2.832 -3.763,-1.602 -7.307,-3.426 -12.242,-3.855 0.39,-0.819 1.677,-1.722 2.721,-2.268 -2.097,-0.537 -5.147,-1.315 -7.478,-0.566 -0.257,-1.295 -0.315,-2.785 -0.571,-4.079 -2.59,-0.063 -5.086,-0.027 -6.345,1.246 z m -11.901,18.815 c 1.43,-4.579 3.254,-8.76 5.78,-12.241 -1.485,-0.8 -4.098,-1.443 -6.12,-0.68 -1.63,3.573 -1.075,9.555 0.34,12.921 z m 15.759,0.643 c 1.062,5.034 0.611,10.837 2.555,13.76 1.376,2.064 7.824,4.201 9.785,1.121 1.398,-2.186 -0.835,-4.539 -2.123,-5.604 -1.192,-0.984 -3.242,-1.759 -3.606,-3.188 -0.27,-1.065 0.264,-2.277 0.276,-3.101 0.066,-4.266 -2.899,-7.178 -5.062,-8.968 -2.215,-1.828 -4.647,-3.078 -7.629,-3.602 2.418,2.042 4.79,4.779 5.804,9.582 z m -22.217,8.31 c -3.258,0.484 -5.9389,1.544 -7.5959,3.625 1.5242,0.822 2.7402,1.946 4.4238,2.609 0.6617,-2.395 2.2039,-4.519 3.1721,-6.234 z m 28.255,65.749 c 5.207,1.678 8.553,5.225 11.22,9.451 1.178,-8.017 -4.81,-12.381 -11.22,-9.451 z m 172.217,-32.656 c -1.204,3.633 -2.595,7.035 -4.497,10.428 -4.699,8.379 -9.633,16.319 -14.849,23.913 -1.012,1.476 -2.491,3.089 -3.288,4.534 -0.784,1.42 -1.069,3.444 -1.247,5.326 -0.191,2.041 0.053,4.336 -0.338,6.346 -0.465,2.394 -2.451,4.043 -3.852,5.894 -2.451,3.237 -4.846,6.819 -7.081,10.259 -0.386,1.338 0.095,5.937 0.073,7.149 -0.068,3.834 -1.796,7.214 -3.286,8.934 -1.28,1.478 -7.166,8.671 -13.35,11.062 -7.591,4.143 -20.182,9.841 -42.11,12.676 -7.83,1.705 -16.679,2.812 -26.271,2.641 -6.013,0.08 -11.718,-0.349 -17.072,-1.101 -24.932,-2.57 -37.936,-8.91 -46.165,-12.996 -4.483,-2.054 -13.24,-8.643 -14.647,-11.083 -1.495,-2.594 -3.2192,-5.047 -3.2883,-8.841 -0.0215,-1.213 0.4133,-2.541 0.2273,-3.852 -0.107,-0.77 -1.4695,-1.522 -2.1543,-2.154 -5.6812,-5.244 -9.2019,-13.037 -8.2715,-23.687 -7.8472,-10.165 -19.3523,-20.467 -25.6621,-32.415 -1.9136,-3.624 -4.6988,-8.716 -5.666,-12.805 v -2.607 c 0.8012,-6.959 7.5734,-9.278 12.3547,-13.261 3.5305,-2.943 9.6199,-6.236 11.9465,-10.313 0.6941,-1.216 1.6219,-3.58 2.3789,-4.082 1.5398,-1.01 4.5957,-0.336 6.3484,-0.679 1.0379,-0.204 1.3992,-1.159 2.6074,-1.926 0.954,-0.61 2.2422,-1.163 3.1719,-1.474 0.8899,-0.3 7.0981,-2.057 7.4801,-0.456 0.227,0.952 -0.63,0.933 -1.36,1.477 -2.24,1.669 -3.037,4.865 -4.3037,7.026 2.8967,1.904 7.4477,3.733 11.3287,4.986 1.382,0.447 3.09,1.3 4.195,1.247 1.585,-0.077 3.492,-2.057 4.307,-2.948 -1.817,-4.405 -2.502,-11.559 -1.36,-17.225 -0.307,-0.651 -1.032,-1.059 -1.587,-1.587 -0.599,-0.568 -1.171,-1.177 -1.699,-1.813 -1.108,-1.332 -1.653,-2.993 -2.832,-4.193 -0.856,1.226 -1.339,2.728 -1.929,4.532 -0.353,1.087 -0.766,4.605 -1.814,4.761 -0.938,0.139 -1.476,-1.344 -1.812,-2.154 -1.214,-2.92 -2.037,-6.506 -1.698,-10.2 -3.429,0.618 -3.9969,-2.385 -4.3087,-4.989 -0.7109,-5.899 -0.3945,-12.556 1.9257,-16.204 1.532,-2.411 4.196,-4.4878 7.019,-5.9101 1.091,-0.5488 8.173,-1.773 11.872,-4.089 16.855,-10.5367 35.634,-15.2297 53.458,-16.3387 v -0.1113 c 26.889,-1.3469 51.381,5.3929 63.468,12.4941 5.429,3.1899 12.193,6.3512 13.717,7.8738 1.939,1.9383 3.839,4.7422 5.424,6.7552 2.035,2.581 6.341,4.466 5.882,9.186 -0.21,2.154 -1.413,4.014 -2.268,5.893 1.896,3.115 1.083,9.149 -0.111,12.467 -0.378,1.057 -0.821,3.12 -1.928,3.061 -1.087,-0.06 -1.798,-4.058 -2.153,-5.102 -0.722,-2.125 -1.308,-3.558 -2.15,-5.213 -6.681,4.855 -10.686,12.955 -10.202,24.596 2.469,1.109 6.124,1.812 9.975,1.812 3.696,0 7.69,-0.158 9.632,-2.153 -1.128,-2.672 -2.529,-5.022 -4.648,-6.914 -0.643,-0.577 -2.05,-1.169 -1.703,-2.039 0.408,-0.993 2.573,-0.412 3.745,-0.228 4.216,0.667 7.684,1.764 10.313,3.628 6.606,-1.377 8.913,3.275 12.013,6.119 2.853,2.619 5.891,5.051 8.387,7.142 2.807,2.346 5.903,4.727 8.274,7.254 2.849,3.037 2.978,7.038 1.438,11.671" /></g><path
           d="m 215.82,70.7371 c 0,-1.8461 -1.208,-2.4473 -3.346,-3.3441 -2.138,-0.8961 -13.682,-4.1809 -31.166,-4.1809 -17.486,0 -31.121,3.7731 -32.638,4.1809 -1.521,0.4109 -3.346,1.498 -3.346,3.3441 V 289.262 c 0,1.847 1.245,2.533 3.346,3.345 2.1,0.813 15.853,4.181 31.931,4.181 16.078,0 30.092,-3.587 31.873,-4.181 1.783,-0.594 3.346,-1.498 3.346,-3.345 V 70.7371"
           style="fill:#ffffff;fill-opacity:1;fill-rule:evenodd;stroke:none;stroke-width:0.1"
           id="path100" /></g></g><path
       inkscape:label="#MEIO"
       d="m 181.231,68.4539 c -14.26,0 -25.824,3.0492 -29.027,3.984 -0.23,0.066 -1.996,0.616 -1.996,1.8641 v 211.396 c 0,0.76 0.175,1.098 2.117,1.911 1.917,0.801 14.343,3.938 28.274,3.938 14.11,0 26.578,-3.348 28.287,-3.964 1.802,-0.649 2.05,-1.29 2.05,-1.885 V 74.302 c 0,-0.7829 -0.186,-1.0348 -2.159,-1.9258 -1.714,-0.7793 -12.012,-3.9223 -27.546,-3.9223"
       style="fill:#000000;fill-opacity:1;fill-rule:evenodd;stroke:none;stroke-width:0.1"
       id="MEIO" /><g
       inkscape:label="#LEO"
       id="LEO"><path
         id="path104"
         style="fill:#ffffff;fill-opacity:1;fill-rule:nonzero;stroke:none;stroke-width:0.1"
         d="m 165.048,220.522 v 56.579 h 11.413 v -47.227 h 20.204 v -9.352 h -31.617" /><path
         id="path106"
         style="fill:#ffffff;fill-opacity:1;fill-rule:nonzero;stroke:none;stroke-width:0.1"
         d="m 196.271,214.506 v -9.35 h -20.206 v -13.313 h 19.015 v -9.35 h -19.015 v -15.215 h 20.998 v -9.349 h -32.41 v 56.577 h 31.618" /><path
         id="path108"
         style="fill:#ffffff;fill-opacity:1;fill-rule:nonzero;stroke:none;stroke-width:0.1"
         d="m 180.858,102.471 c 6.736,0 7.844,5.787 7.844,20.999 0,15.136 -1.108,21.001 -7.844,21.001 -6.735,0 -7.847,-5.865 -7.847,-21.001 0,-15.212 1.112,-20.999 7.847,-20.999 z m 0,50.398 c 17.115,0 19.255,-12.203 19.255,-29.398 0,-17.195 -2.14,-29.398 -19.255,-29.398 -17.116,0 -19.256,12.203 -19.256,29.397 0,17.196 2.14,29.399 19.256,29.399" /><path
         id="path110"
         style="fill:#ffffff;fill-opacity:1;fill-rule:evenodd;stroke:none;stroke-width:0.1"
         d="m 177.1,83.6672 c -0.342,-3.3363 3.153,-4.9043 5.404,-3.791 3.511,1.7328 2.096,7.7238 -2.316,7.0207 -1.753,-0.2789 -2.917,-1.5547 -3.088,-3.2297 z m 3.581,4.2828 c 2.92,0.125 6.066,-2.784 4.563,-6.5301 -0.83,-2.0711 -2.99,-3.1578 -5.197,-2.8789 -3.008,0.382 -4.954,4.077 -3.442,6.952 0.643,1.216 2.074,2.373 4.076,2.457" /><path
         id="path114"
         style="fill:#ffffff;fill-opacity:1;fill-rule:evenodd;stroke:none;stroke-width:0.1"
         d="m 181.382,85.2109 c -0.311,0.0629 -0.901,0.1493 -1.194,0 0,-0.4668 0,-0.9347 0,-1.4027 0.551,-0.0141 1.104,-0.0281 1.406,0.2109 0.236,0.4258 0.113,0.9559 -0.212,1.1918 z m 0.491,-2.0347 c 0.459,-0.8051 0.883,-1.6442 1.265,-2.5282 -0.4,0 -0.794,0 -1.193,0 -0.475,0.8129 -0.493,2.0829 -1.616,2.2461 -0.313,-0.482 -0.057,-1.5339 -0.141,-2.2461 -0.352,0 -0.702,0 -1.053,0 0,1.7309 0,3.4641 0,5.1961 0.939,0.4758 2.452,0.6559 3.23,-0.141 0.657,-0.6711 0.542,-2.1691 -0.492,-2.5269" /></g></g></svg>
